<?xml version="1.0" encoding="UTF-8" standalone="no"?>
<!-- Created with Inkscape (http://www.inkscape.org/) -->

<svg
   xmlns:dc="http://purl.org/dc/elements/1.1/"
   xmlns:cc="http://creativecommons.org/ns#"
   xmlns:rdf="http://www.w3.org/1999/02/22-rdf-syntax-ns#"
   xmlns:svg="http://www.w3.org/2000/svg"
   xmlns="http://www.w3.org/2000/svg"
   xmlns:sodipodi="http://sodipodi.sourceforge.net/DTD/sodipodi-0.dtd"
   xmlns:inkscape="http://www.inkscape.org/namespaces/inkscape"
   width="40.68708mm"
   height="39.980576mm"
   viewBox="0 0 40.68708 39.980576"
   version="1.1"
   id="svg992"
   inkscape:version="0.92.3 (2405546, 2018-03-11)"
   sodipodi:docname="teh.svg">
  <defs
     id="defs986" />
  <sodipodi:namedview
     id="base"
     pagecolor="#ffffff"
     bordercolor="#666666"
     borderopacity="1.0"
     inkscape:pageopacity="0.0"
     inkscape:pageshadow="2"
     inkscape:zoom="2.8"
     inkscape:cx="19.912857"
     inkscape:cy="60.755547"
     inkscape:document-units="mm"
     inkscape:current-layer="layer1"
     showgrid="false"
     fit-margin-top="0"
     fit-margin-left="0"
     fit-margin-right="0"
     fit-margin-bottom="0"
     inkscape:window-width="1920"
     inkscape:window-height="1017"
     inkscape:window-x="-8"
     inkscape:window-y="-8"
     inkscape:window-maximized="1" />
  <metadata
     id="metadata989">
    <rdf:RDF>
      <cc:Work
         rdf:about="">
        <dc:format>image/svg+xml</dc:format>
        <dc:type
           rdf:resource="http://purl.org/dc/dcmitype/StillImage" />
        <dc:title></dc:title>
      </cc:Work>
    </rdf:RDF>
  </metadata>
  <g
     inkscape:label="Layer 1"
     inkscape:groupmode="layer"
     id="layer1"
     transform="translate(-23.501699,-40.396617)">
    <ellipse
       style="opacity:1;fill:none;fill-opacity:1;fill-rule:nonzero;stroke:#000003;stroke-width:0.20981659;stroke-linecap:round;stroke-linejoin:round;stroke-miterlimit:4;stroke-dasharray:none;stroke-dashoffset:0;stroke-opacity:1;paint-order:fill markers stroke"
       id="path895-7"
       ry="3.0084124"
       rx="14.816218"
       cy="43.509937"
       cx="38.43618" />
    <path
       sodipodi:nodetypes="cscsssscsccscc"
       inkscape:connector-curvature="0"
       id="path927-8-28-3-6-8"
       d="m 24.401004,53.462569 c 0.0156,0 1.38387,11.339602 1.88414,14.37529 0.40962,2.48562 1.47583,6.426197 1.87955,7.495413 0,0 0.29206,0.481801 1.07813,0.876046 0.67523,0.338653 1.69944,0.720929 2.89621,0.993357 1.60307,0.364918 3.92754,0.551997 5.8635,0.582938 2.43124,0.03886 4.93527,-0.210431 6.7913,-0.628481 2.41655,-0.544298 3.7672,-1.594009 3.6402,-1.868641 0.29981,-0.535138 1.38551,-4.783632 1.870091,-7.252705 0.59926,-3.053482 1.916348,-14.549537 1.916348,-14.549537 L 52.433015,49.5516 c 0.621128,0.889006 -6.160691,2.613221 -14.329321,2.590936 -8.14574,-0.02222 -14.07352,-1.376533 -13.81824,-2.666665 z"
       style="fill:#ba7727;fill-opacity:0.7254902;stroke:#ba7727;stroke-width:0.13219099;stroke-linecap:round;stroke-linejoin:round;stroke-miterlimit:4;stroke-dasharray:none;stroke-opacity:0.98039216" />
    <path
       sodipodi:open="true"
       d="M 48.518861,75.081429 A 10.309227,3.1488109 0 0 1 38.012898,77.842394 10.309227,3.1488109 0 0 1 28.003567,74.914352"
       sodipodi:end="3.0717795"
       sodipodi:start="0.12312768"
       sodipodi:ry="3.1488109"
       sodipodi:rx="10.309227"
       sodipodi:cy="74.694702"
       sodipodi:cx="38.287682"
       sodipodi:type="arc"
       id="path1403-2"
       style="opacity:1;fill:none;fill-opacity:0.6627451;fill-rule:nonzero;stroke:#000000;stroke-width:0.14490499;stroke-linecap:round;stroke-linejoin:round;stroke-miterlimit:4;stroke-dasharray:none;stroke-dashoffset:0;stroke-opacity:1;paint-order:fill markers stroke" />
    <path
       sodipodi:open="true"
       d="m 41.070548,46.008103 a 14.055022,2.5368612 0 0 1 -15.383705,-1.455474 14.055022,2.5368612 0 0 1 4.198271,-3.042064 14.055022,2.5368612 0 0 1 17.368767,0.0171 14.055022,2.5368612 0 0 1 4.014176,3.050149"
       sodipodi:end="0.43284165"
       sodipodi:start="1.3875368"
       sodipodi:ry="2.5368612"
       sodipodi:rx="14.055022"
       sodipodi:cy="43.513721"
       sodipodi:cx="38.509224"
       sodipodi:type="arc"
       id="path895-0-3"
       style="opacity:1;fill:none;fill-opacity:1;fill-rule:nonzero;stroke:#000003;stroke-width:0.13311157;stroke-linecap:round;stroke-linejoin:round;stroke-miterlimit:4;stroke-dasharray:none;stroke-dashoffset:0;stroke-opacity:1;paint-order:fill markers stroke" />
    <path
       sodipodi:nodetypes="ccsc"
       inkscape:connector-curvature="0"
       id="path927-8-1"
       d="m 53.260293,43.42834 -0.57984,10.116602 c 0,0 -1.29277,12.214523 -1.997749,15.844359 -0.57004,2.935121 -1.48986,7.364553 -2.10428,8.612095"
       style="fill:none;stroke:#000000;stroke-width:0.20972867;stroke-linecap:round;stroke-linejoin:miter;stroke-miterlimit:4;stroke-dasharray:none;stroke-opacity:1" />
    <path
       sodipodi:nodetypes="czzcccc"
       inkscape:connector-curvature="0"
       id="path1036-61"
       d="m 52.698305,52.875808 c 0,0 3.320828,-2.004872 5.154708,-1.941205 1.83388,0.06368 3.2445,2.373058 3.614851,4.589416 0.370361,2.216358 -0.822629,8.868287 -3.301871,11.634922 -1.95586,1.840346 -2.526548,2.479463 -4.552479,1.823852 -0.94807,-0.514477 -2.499489,-1.623891 -2.499489,-1.623891 z"
       style="fill:none;stroke:#000000;stroke-width:0.20972867;stroke-linecap:butt;stroke-linejoin:miter;stroke-miterlimit:4;stroke-dasharray:none;stroke-opacity:1" />
    <path
       sodipodi:nodetypes="czzcccc"
       inkscape:connector-curvature="0"
       id="path1036-6-8"
       d="m 52.861124,50.577922 c -0.257731,-0.322171 3.612891,-2.225716 6.35803,-2.011093 2.74515,0.214622 4.524071,3.190405 4.798449,6.314268 0.27437,3.123863 -0.17957,9.90015 -3.967689,13.653071 -1.65431,2.19293 -5.093861,3.969756 -7.08279,2.93679 -1.44037,-0.782436 -2.343269,-1.425918 -2.343269,-1.425918 1.057299,-6.430689 1.74144,-12.520069 2.237269,-19.467118 z"
       style="fill:none;stroke:#000000;stroke-width:0.20972867;stroke-linecap:butt;stroke-linejoin:miter;stroke-miterlimit:4;stroke-dasharray:none;stroke-opacity:1" />
    <path
       sodipodi:nodetypes="ccsc"
       inkscape:connector-curvature="0"
       id="path927-8-28-1"
       d="m 23.606644,43.560436 0.47572,9.979771 c 0,0 1.24519,12.2175 1.95016,15.847338 0.57005,2.935118 1.48988,7.364547 2.10429,8.612095"
       style="fill:none;stroke:#000000;stroke-width:0.20972867;stroke-linecap:round;stroke-linejoin:miter;stroke-miterlimit:4;stroke-dasharray:none;stroke-opacity:1" />
    <path
       sodipodi:nodetypes="csc"
       inkscape:connector-curvature="0"
       id="path927-8-28-3-0-1"
       d="m 52.220473,53.486249 c 0,0 -1.326108,11.293084 -1.925368,14.346567 -0.484581,2.46907 -1.266481,6.195184 -1.788771,7.244641"
       style="fill:none;stroke:#000000;stroke-width:0.13228214;stroke-linecap:butt;stroke-linejoin:miter;stroke-miterlimit:4;stroke-dasharray:none;stroke-opacity:1" />
    <ellipse
       ry="11.688455"
       rx="1.9904683"
       cy="63.02795"
       cx="38.424324"
       id="path1246-0"
       style="opacity:1;fill:none;fill-opacity:1;fill-rule:nonzero;stroke:#000003;stroke-width:0.01991943;stroke-linecap:round;stroke-linejoin:round;stroke-miterlimit:4;stroke-dasharray:none;stroke-dashoffset:0;stroke-opacity:1;paint-order:fill markers stroke" />
    <ellipse
       transform="matrix(-1,0,-0.1377899,0.99046148,0,0)"
       ry="11.801019"
       rx="1.9904683"
       cy="62.547649"
       cx="-55.64975"
       id="path1246-2"
       style="opacity:1;fill:none;fill-opacity:1;fill-rule:nonzero;stroke:#000003;stroke-width:0.02001511;stroke-linecap:round;stroke-linejoin:round;stroke-miterlimit:4;stroke-dasharray:none;stroke-dashoffset:0;stroke-opacity:1;paint-order:fill markers stroke" />
    <ellipse
       transform="matrix(1,0,0.1377899,0.99046148,0,0)"
       ry="11.801019"
       rx="1.9904683"
       cy="62.547649"
       cx="21.198921"
       id="path1246-2-5"
       style="opacity:1;fill:none;fill-opacity:1;fill-rule:nonzero;stroke:#000003;stroke-width:0.02001511;stroke-linecap:round;stroke-linejoin:round;stroke-miterlimit:4;stroke-dasharray:none;stroke-dashoffset:0;stroke-opacity:1;paint-order:fill markers stroke" />
    <ellipse
       ry="2.6151772"
       rx="14.099502"
       cy="49.615707"
       cx="38.352715"
       id="path1403"
       style="opacity:1;fill:#ba7727;fill-opacity:0.7254902;fill-rule:nonzero;stroke:#ba7727;stroke-width:0.1871389;stroke-linecap:round;stroke-linejoin:round;stroke-miterlimit:4;stroke-dasharray:none;stroke-dashoffset:0;stroke-opacity:1;paint-order:fill markers stroke" />
    <path
       sodipodi:nodetypes="czsc"
       inkscape:connector-curvature="0"
       id="path927-8-28-3-6"
       d="m 24.052164,46.374211 c 0,0 0.22524,4.346819 0.3909,7.105185 0.16565,2.758366 1.24281,11.304982 1.84208,14.358463 0.48457,2.469073 1.26648,6.195184 1.78877,7.244641"
       style="fill:none;stroke:#000000;stroke-width:0.13228214;stroke-linecap:butt;stroke-linejoin:miter;stroke-miterlimit:4;stroke-dasharray:none;stroke-opacity:1" />
    <path
       style="opacity:1;fill:none;fill-opacity:0.6627451;fill-rule:nonzero;stroke:#000000;stroke-width:0.20961632;stroke-linecap:round;stroke-linejoin:round;stroke-miterlimit:4;stroke-dasharray:none;stroke-dashoffset:0;stroke-opacity:1;paint-order:fill markers stroke"
       id="path1403-2-2"
       sodipodi:type="arc"
       sodipodi:cx="38.335564"
       sodipodi:cy="77.649872"
       sodipodi:rx="10.315622"
       sodipodi:ry="2.6224849"
       sodipodi:start="0.13962634"
       sodipodi:end="3.0717795"
       d="M 48.550795,78.014851 A 10.315622,2.6224849 0 0 1 37.975554,80.270759 10.315622,2.6224849 0 0 1 28.04507,77.832807"
       sodipodi:open="true" />
  </g>
</svg>
