<?xml version="1.0" encoding="UTF-8" standalone="no"?>
<svg
   xmlns:dc="http://purl.org/dc/elements/1.1/"
   xmlns:cc="http://creativecommons.org/ns#"
   xmlns:rdf="http://www.w3.org/1999/02/22-rdf-syntax-ns#"
   xmlns:svg="http://www.w3.org/2000/svg"
   xmlns="http://www.w3.org/2000/svg"
   xmlns:sodipodi="http://sodipodi.sourceforge.net/DTD/sodipodi-0.dtd"
   xmlns:inkscape="http://www.inkscape.org/namespaces/inkscape"
   width="25.751587mm"
   height="40.02mm"
   viewBox="0 0 25.751587 40.02"
   version="1.1"
   id="svg335"
   inkscape:version="1.0 (6e3e5246a0, 2020-05-07)"
   sodipodi:docname="cmilk.svg">
  <defs
     id="defs329">
    <path
       sodipodi:nodetypes="cc"
       inkscape:connector-curvature="0"
       id="path1569-5"
       d="m 127.78062,99.525697 c 7.58501,1.194443 15.17002,1.295243 22.75503,0"
       style="fill:none;stroke:#000000;stroke-width:0.265108px;stroke-linecap:butt;stroke-linejoin:miter;stroke-opacity:1" />
  </defs>
  <sodipodi:namedview
     id="base"
     pagecolor="#ffffff"
     bordercolor="#666666"
     borderopacity="1.0"
     inkscape:pageopacity="0.0"
     inkscape:pageshadow="2"
     inkscape:zoom="5.6"
     inkscape:cx="82.510719"
     inkscape:cy="77.625122"
     inkscape:document-units="mm"
     inkscape:current-layer="text1559-3"
     inkscape:document-rotation="0"
     showgrid="false"
     fit-margin-top="0"
     fit-margin-left="0"
     fit-margin-right="0"
     fit-margin-bottom="0"
     inkscape:window-width="1439"
     inkscape:window-height="1023"
     inkscape:window-x="117"
     inkscape:window-y="27"
     inkscape:window-maximized="0" />
  <metadata
     id="metadata332">
    <rdf:RDF>
      <cc:Work
         rdf:about="">
        <dc:format>image/svg+xml</dc:format>
        <dc:type
           rdf:resource="http://purl.org/dc/dcmitype/StillImage" />
        <dc:title />
      </cc:Work>
    </rdf:RDF>
  </metadata>
  <g
     inkscape:label="Layer 1"
     inkscape:groupmode="layer"
     id="layer1"
     transform="translate(-60.338774,-80.331144)">
    <g
       transform="matrix(0.9137037,0,0,1,0.14230946,-25.41585)"
       id="g2484">
      <g
         id="g2406">
        <g
           id="g2379">
          <g
             transform="matrix(0.87410217,0,0,1.0434825,-39.751428,33.15273)"
             id="g1748">
            <g
               id="g1919">
              <g
                 transform="matrix(0.90496342,0,0,1,11.484953,0)"
                 id="g1961">
                <g
                   id="g1984">
                  <path
                     id="path1828"
                     style="fill:#4b6bc8;fill-opacity:0.992157;stroke:#000000;stroke-width:0.302351;stroke-linecap:butt;stroke-linejoin:miter;stroke-miterlimit:4;stroke-dasharray:none;stroke-opacity:1"
                     d="m 121.21868,87.604432 v -10e-7 c 3.85576,0.42628 10.75573,0.03063 18.02899,-1.033794 7.27327,-1.064429 13.77828,-2.630571 16.99699,-4.092186 v 9.251777 c -3.21873,1.461616 -9.72373,3.027753 -16.99699,4.092178 -7.27325,1.064426 -14.17321,1.460078 -18.02899,1.033803 z"
                     inkscape:connector-curvature="0"
                     sodipodi:nodetypes="ccsccscc" />
                  <ellipse
                     ry="2.6532829"
                     rx="17.548555"
                     cy="77.814606"
                     cx="138.77713"
                     id="path895-0-3-3"
                     style="opacity:1;fill:#eaeaea;fill-opacity:1;fill-rule:nonzero;stroke:#000003;stroke-width:0.302351;stroke-linecap:round;stroke-linejoin:round;stroke-miterlimit:4;stroke-dasharray:none;stroke-dashoffset:0;stroke-opacity:1;paint-order:fill markers stroke" />
                  <path
                     inkscape:connector-curvature="0"
                     id="path1068"
                     d="M 156.31007,104.14365 V 77.655159"
                     style="fill:none;stroke:#000000;stroke-width:0.27769;stroke-linecap:butt;stroke-linejoin:miter;stroke-miterlimit:4;stroke-dasharray:none;stroke-opacity:1" />
                  <path
                     inkscape:connector-curvature="0"
                     id="path1070"
                     d="M 121.21292,104.09548 V 77.992286"
                     style="fill:none;stroke:#000000;stroke-width:0.27769;stroke-linecap:butt;stroke-linejoin:miter;stroke-miterlimit:4;stroke-dasharray:none;stroke-opacity:1" />
                  <path
                     id="path1199-1"
                     style="fill:#e1e1e1;fill-opacity:1;stroke:#000000;stroke-width:0.302351;stroke-linecap:round;stroke-linejoin:miter;stroke-miterlimit:4;stroke-dasharray:none;stroke-opacity:1"
                     d="m 156.31007,77.655159 c -8e-5,0.945177 -3.34482,1.821098 -8.77436,2.295061 -5.42954,0.473963 -12.11901,0.473962 -17.54855,-10e-7 -5.42954,-0.473963 -8.77428,-1.349883 -8.77436,-2.309779 v 0.978715 c 8e-5,0.957255 3.34481,1.833176 8.77436,2.307139 5.42954,0.473963 12.11901,0.473963 17.54855,0 5.42954,-0.473963 8.77428,-1.349884 8.77436,-2.29242 z"
                     inkscape:connector-curvature="0"
                     sodipodi:nodetypes="cssccsscc" />
                  <path
                     id="path1199-1-6"
                     style="fill:#e1e1e1;fill-opacity:1;stroke:#000000;stroke-width:0.302351;stroke-linecap:round;stroke-linejoin:miter;stroke-miterlimit:4;stroke-dasharray:none;stroke-opacity:1"
                     d="m 156.31007,104.14365 c -8e-5,0.94518 -3.34482,1.8211 -8.77436,2.29506 -5.42954,0.47397 -12.11901,0.47397 -17.54855,0 -5.42954,-0.47396 -8.77428,-1.34988 -8.77436,-2.30978 v 0.97872 c 8e-5,0.95725 3.34481,1.83317 8.77436,2.30714 5.42954,0.47396 12.11901,0.47396 17.54855,0 5.42954,-0.47397 8.77428,-1.34989 8.77436,-2.29242 z"
                     inkscape:connector-curvature="0"
                     sodipodi:nodetypes="cssccsscc" />
                  <g
                     style="font-style:normal;font-variant:normal;font-weight:normal;font-stretch:normal;font-size:2.95054px;line-height:1.25;font-family:'Times New Roman';-inkscape-font-specification:'Times New Roman, ';text-align:start;letter-spacing:0px;word-spacing:0px;text-anchor:start;fill:#ffffff;fill-opacity:0.992157;stroke:#fefeff;stroke-width:0;stroke-miterlimit:4;stroke-dasharray:none;stroke-opacity:1"
                     id="text1559-3"
                     transform="matrix(1.5908669,-0.24285751,0.34609673,1.5908669,-116.88005,-32.910246)"
                     aria-label=" Condensed Milk">
                    <path
                       id="path478"
                       style="font-style:normal;font-variant:normal;font-weight:normal;font-stretch:normal;font-family:Lato;-inkscape-font-specification:Lato;fill:#ffffff;fill-opacity:0.992157;stroke:#fefeff;stroke-width:0;stroke-miterlimit:4;stroke-dasharray:none;stroke-opacity:1"
                       d="m 130.32303,99.448501 q 0.0234,0.0032 0.0384,0.02456 l 0.0961,0.136598 q -0.14886,0.131672 -0.34436,0.190028 -0.19403,0.05855 -0.45425,0.02327 -0.22513,-0.03052 -0.39883,-0.132975 -0.17349,-0.103915 -0.28457,-0.261897 -0.11089,-0.159443 -0.15576,-0.366511 -0.0449,-0.207067 -0.0128,-0.443894 0.0321,-0.236827 0.13342,-0.424076 0.10131,-0.187248 0.25503,-0.310818 0.15518,-0.123371 0.35427,-0.175285 0.19929,-0.05337 0.42734,-0.02246 0.22367,0.03032 0.385,0.125146 0.16133,0.09482 0.27479,0.23526 l -0.1112,0.117425 q -0.0108,0.01343 -0.0268,0.02168 -0.0143,0.007 -0.0377,0.0038 -0.0263,-0.0036 -0.0606,-0.0365 -0.0341,-0.03439 -0.0907,-0.0778 -0.0566,-0.04341 -0.14498,-0.08367 -0.0881,-0.04172 -0.22263,-0.05996 -0.16227,-0.022 -0.30449,0.01678 -0.14203,0.03732 -0.25444,0.130758 -0.11095,0.09364 -0.18586,0.239803 -0.0749,0.146166 -0.10106,0.339136 -0.0266,0.195894 0.008,0.356925 0.0362,0.161229 0.11822,0.281028 0.0837,0.118535 0.20771,0.191925 0.1255,0.07359 0.279,0.0944 0.0936,0.01269 0.16951,0.01256 0.0776,-0.0014 0.14363,-0.01626 0.0675,-0.01467 0.12635,-0.04242 0.0605,-0.02902 0.12133,-0.07139 0.0278,-0.01856 0.0527,-0.01519 z" />
                    <path
                       id="path480"
                       style="font-style:normal;font-variant:normal;font-weight:normal;font-stretch:normal;font-family:Lato;-inkscape-font-specification:Lato;fill:#ffffff;fill-opacity:0.992157;stroke:#fefeff;stroke-width:0;stroke-miterlimit:4;stroke-dasharray:none;stroke-opacity:1"
                       d="m 131.45272,98.489865 q 0.16273,0.01825 0.28713,0.08713 0.1244,0.06888 0.20558,0.178929 0.0812,0.110051 0.11362,0.257687 0.0341,0.146333 0.0145,0.320797 -0.0197,0.17593 -0.0854,0.311083 -0.0642,0.135318 -0.16771,0.224654 -0.10354,0.08934 -0.24011,0.128948 -0.1364,0.03815 -0.29913,0.0199 -0.1642,-0.0184 -0.29023,-0.08599 -0.1244,-0.06888 -0.20558,-0.178929 -0.0812,-0.110051 -0.11525,-0.256385 -0.0326,-0.146169 -0.0129,-0.322099 0.0196,-0.174463 0.0837,-0.309781 0.0658,-0.13662 0.16934,-0.225956 0.10354,-0.08934 0.24011,-0.128948 0.13803,-0.03945 0.30223,-0.02103 z m -0.14863,1.325336 q 0.21991,0.02466 0.34484,-0.10978 0.1251,-0.135907 0.15469,-0.399802 0.0298,-0.26536 -0.0621,-0.425601 -0.0919,-0.16024 -0.3118,-0.184902 -0.11142,-0.0125 -0.19926,0.01625 -0.0864,0.02891 -0.15014,0.0945 -0.0623,0.06575 -0.102,0.168189 -0.0381,0.101132 -0.0529,0.23308 -0.0296,0.263894 0.0623,0.424135 0.0935,0.158938 0.31636,0.183929 z" />
                    <path
                       id="path482"
                       style="font-style:normal;font-variant:normal;font-weight:normal;font-stretch:normal;font-family:Lato;-inkscape-font-specification:Lato;fill:#ffffff;fill-opacity:0.992157;stroke:#fefeff;stroke-width:0;stroke-miterlimit:4;stroke-dasharray:none;stroke-opacity:1"
                       d="m 132.31887,100.10999 0.13413,-1.488412 0.15722,0.01417 q 0.0558,0.005 0.0642,0.06059 l 0.006,0.163479 q 0.10664,-0.09852 0.23309,-0.153782 0.12644,-0.05526 0.28366,-0.04109 0.12195,0.01099 0.21081,0.06047 0.0905,0.04815 0.14542,0.128643 0.0566,0.07916 0.0795,0.186394 0.0229,0.107235 0.0115,0.233596 l -0.0854,0.947706 -0.26301,-0.0237 0.0854,-0.947709 q 0.0152,-0.168971 -0.0543,-0.268556 -0.0679,-0.100921 -0.22515,-0.11509 -0.11755,-0.01059 -0.22396,0.0361 -0.10495,0.04683 -0.1973,0.134788 l -0.0988,1.096113 z" />
                    <path
                       id="path484"
                       style="font-style:normal;font-variant:normal;font-weight:normal;font-stretch:normal;font-family:Lato;-inkscape-font-specification:Lato;fill:#ffffff;fill-opacity:0.992157;stroke:#fefeff;stroke-width:0;stroke-miterlimit:4;stroke-dasharray:none;stroke-opacity:1"
                       d="m 135.03823,100.32646 q -0.0559,-0.004 -0.067,-0.0592 l -0.0113,-0.18264 q -0.10355,0.1098 -0.23197,0.17207 -0.12686,0.0609 -0.28582,0.0501 -0.12806,-0.009 -0.22927,-0.0643 -0.10111,-0.0571 -0.16823,-0.15778 -0.0671,-0.100664 -0.0972,-0.24613 -0.0301,-0.145466 -0.0175,-0.330925 0.0112,-0.164852 0.0649,-0.303163 0.0538,-0.139782 0.14333,-0.238703 0.0895,-0.09892 0.21272,-0.149719 0.12478,-0.05217 0.27492,-0.042 0.13688,0.0093 0.23084,0.06296 0.0955,0.05231 0.16638,0.141393 l 0.056,-0.827205 0.262,0.01775 -0.14689,2.168105 z m -0.49631,-0.22585 q 0.12952,0.009 0.22919,-0.0436 0.10113,-0.0523 0.18936,-0.154259 l 0.0488,-0.719757 q -0.067,-0.102131 -0.14969,-0.147656 -0.0827,-0.04552 -0.18866,-0.05271 -0.20754,-0.01406 -0.32947,0.127023 -0.12194,0.141083 -0.14058,0.416327 -0.01,0.145718 0.008,0.251918 0.018,0.104728 0.062,0.175726 0.0441,0.06952 0.11265,0.105223 0.0686,0.0357 0.15834,0.0418 z" />
                    <path
                       id="path486"
                       style="font-style:normal;font-variant:normal;font-weight:normal;font-stretch:normal;font-family:Lato;-inkscape-font-specification:Lato;fill:#ffffff;fill-opacity:0.992157;stroke:#fefeff;stroke-width:0;stroke-miterlimit:4;stroke-dasharray:none;stroke-opacity:1"
                       d="m 136.29197,98.871616 q 0.13411,0.0061 0.2455,0.05697 0.11294,0.04945 0.19157,0.138689 0.0802,0.08783 0.12163,0.215248 0.0415,0.125944 0.0343,0.285107 -0.003,0.0619 -0.017,0.08193 -0.0142,0.02003 -0.0511,0.01835 l -0.99772,-0.04547 q -0.004,0.141613 0.0271,0.247861 0.0306,0.106247 0.0893,0.179803 0.0587,0.0721 0.1426,0.11136 0.0839,0.0378 0.19004,0.0426 0.0987,0.004 0.17049,-0.0144 0.0733,-0.0203 0.12608,-0.0445 0.0528,-0.0242 0.0877,-0.0447 0.0365,-0.022 0.0615,-0.0208 0.0324,0.001 0.049,0.0273 l 0.0693,0.0991 q -0.0513,0.0567 -0.12113,0.0979 -0.0697,0.0396 -0.14912,0.0641 -0.0779,0.0245 -0.16105,0.034 -0.0832,0.011 -0.16426,0.007 -0.15474,-0.007 -0.28355,-0.0646 -0.12727,-0.059 -0.2185,-0.16355 -0.0897,-0.10598 -0.13595,-0.257248 -0.0463,-0.151265 -0.0375,-0.344325 0.007,-0.156217 0.0605,-0.289652 0.0548,-0.133367 0.14921,-0.228011 0.0945,-0.09612 0.22671,-0.14621 0.1323,-0.05157 0.29442,-0.04418 z m -0.003,0.193329 q -0.19011,-0.0087 -0.3042,0.0969 -0.11403,0.104087 -0.14942,0.297411 l 0.81645,0.03721 q 0.004,-0.09137 -0.0189,-0.167741 -0.0216,-0.07778 -0.0692,-0.134588 -0.0461,-0.05822 -0.11548,-0.09092 -0.0693,-0.03417 -0.15923,-0.03827 z" />
                    <path
                       id="path488"
                       style="font-style:normal;font-variant:normal;font-weight:normal;font-stretch:normal;font-family:Lato;-inkscape-font-specification:Lato;fill:#ffffff;fill-opacity:0.992157;stroke:#fefeff;stroke-width:0;stroke-miterlimit:4;stroke-dasharray:none;stroke-opacity:1"
                       d="m 137.1658,100.42699 0.0344,-1.494054 0.15781,0.0036 q 0.056,0.0013 0.0681,0.05617 l 0.0169,0.162712 q 0.0998,-0.105426 0.22229,-0.169013 0.12246,-0.06359 0.28028,-0.05995 0.12241,0.0028 0.21438,0.04625 0.0935,0.04199 0.15369,0.118638 0.0617,0.0752 0.0918,0.180666 0.03,0.105464 0.0271,0.232303 l -0.0219,0.951293 -0.26401,-0.006 0.0219,-0.951298 q 0.004,-0.169611 -0.0721,-0.264328 -0.0745,-0.09616 -0.23234,-0.09979 -0.11799,-0.0027 -0.22104,0.05099 -0.10158,0.05374 -0.18786,0.14767 l -0.0253,1.100256 z" />
                    <path
                       id="path490"
                       style="font-style:normal;font-variant:normal;font-weight:normal;font-stretch:normal;font-family:Lato;-inkscape-font-specification:Lato;fill:#ffffff;fill-opacity:0.992157;stroke:#fefeff;stroke-width:0;stroke-miterlimit:4;stroke-dasharray:none;stroke-opacity:1"
                       d="m 139.6866,99.212391 q -0.0178,0.03242 -0.0547,0.03234 -0.0221,-4.6e-5 -0.0501,-0.01633 -0.028,-0.01629 -0.0693,-0.03555 -0.0398,-0.02073 -0.0958,-0.03708 -0.056,-0.01782 -0.13274,-0.01798 -0.0664,-1.37e-4 -0.11953,0.01746 -0.0531,0.01612 -0.0916,0.04555 -0.037,0.02943 -0.0577,0.06922 -0.0193,0.03832 -0.0194,0.08405 -1.2e-4,0.05754 0.0323,0.09596 0.0339,0.03843 0.0884,0.06657 0.0545,0.02814 0.12382,0.05041 0.0693,0.0208 0.14154,0.04602 0.0737,0.02376 0.14299,0.0534 0.0693,0.02965 0.12377,0.07402 0.0545,0.04437 0.0868,0.109348 0.0338,0.06351 0.0336,0.153501 -2.1e-4,0.10327 -0.0373,0.19171 -0.0371,0.087 -0.10949,0.15172 -0.0724,0.0633 -0.17723,0.1 -0.10482,0.0367 -0.24202,0.0364 -0.15638,-3.2e-4 -0.28315,-0.0507 -0.12677,-0.0519 -0.21512,-0.13174 l 0.0622,-0.10019 q 0.0118,-0.0192 0.0281,-0.0295 0.0162,-0.0103 0.0413,-0.0102 0.0266,6e-5 0.056,0.0208 0.0295,0.0207 0.0707,0.0459 0.0427,0.0252 0.10318,0.0459 0.0604,0.0208 0.15043,0.021 0.0767,1.5e-4 0.13429,-0.0189 0.0576,-0.0205 0.096,-0.0544 0.0384,-0.0339 0.0562,-0.0781 0.0193,-0.0442 0.0194,-0.0944 1.2e-4,-0.06196 -0.0337,-0.101859 -0.0324,-0.04137 -0.0869,-0.06952 -0.0545,-0.02962 -0.1253,-0.05042 -0.0693,-0.02227 -0.143,-0.04603 -0.0722,-0.02375 -0.143,-0.0534 -0.0693,-0.03112 -0.12376,-0.07697 -0.0545,-0.04584 -0.0883,-0.112302 -0.0323,-0.06793 -0.0321,-0.163821 1.8e-4,-0.08557 0.0358,-0.163682 0.0356,-0.07959 0.10355,-0.138463 0.068,-0.06035 0.1669,-0.09555 0.0989,-0.0352 0.22579,-0.03494 0.14753,3.03e-4 0.26398,0.04775 0.11792,0.04597 0.20332,0.127291 z" />
                    <path
                       id="path492"
                       style="font-style:normal;font-variant:normal;font-weight:normal;font-stretch:normal;font-family:Lato;-inkscape-font-specification:Lato;fill:#ffffff;fill-opacity:0.992157;stroke:#fefeff;stroke-width:0;stroke-miterlimit:4;stroke-dasharray:none;stroke-opacity:1"
                       d="m 140.67695,98.929335 q 0.13422,-0.0025 0.24865,0.04112 0.11587,0.04211 0.20006,0.126131 0.0856,0.08251 0.13517,0.207014 0.0495,0.123025 0.0525,0.282326 0.001,0.06195 -0.0117,0.08285 -0.0129,0.0209 -0.0498,0.02158 l -0.99859,0.01855 q 0.006,0.141546 0.0429,0.245615 0.0373,0.104071 0.10061,0.173721 0.0632,0.0682 0.14945,0.10198 0.0862,0.0323 0.19238,0.0304 0.0988,-0.002 0.16921,-0.0253 0.0718,-0.0249 0.12297,-0.0524 0.0511,-0.0275 0.0846,-0.0503 0.035,-0.0243 0.06,-0.0247 0.0324,-6e-4 0.0506,0.0241 l 0.0755,0.0945 q -0.0476,0.0599 -0.11461,0.10542 -0.0671,0.044 -0.14472,0.0735 -0.0762,0.0294 -0.15853,0.0443 -0.0823,0.0163 -0.16345,0.0178 -0.15488,0.003 -0.28711,-0.0463 -0.13079,-0.0507 -0.22853,-0.14921 -0.0963,-0.10002 -0.15216,-0.24801 -0.0559,-0.147993 -0.0595,-0.34122 -0.003,-0.156352 0.0418,-0.29293 0.0462,-0.136605 0.1343,-0.237103 0.0881,-0.101972 0.21687,-0.160433 0.12873,-0.05994 0.29099,-0.06295 z m 0.009,0.193117 q -0.19027,0.0035 -0.29737,0.116187 -0.10712,0.111178 -0.13006,0.306374 l 0.81716,-0.01518 q -0.002,-0.09145 -0.0296,-0.166184 -0.0265,-0.07623 -0.0777,-0.129879 -0.0497,-0.05515 -0.12106,-0.08333 -0.0714,-0.02966 -0.16136,-0.02799 z" />
                    <path
                       id="path494"
                       style="font-style:normal;font-variant:normal;font-weight:normal;font-stretch:normal;font-family:Lato;-inkscape-font-specification:Lato;fill:#ffffff;fill-opacity:0.992157;stroke:#fefeff;stroke-width:0;stroke-miterlimit:4;stroke-dasharray:none;stroke-opacity:1"
                       d="m 142.72754,100.37971 q -0.056,0.002 -0.073,-0.0516 l -0.0312,-0.1803 q -0.0909,0.1205 -0.21171,0.19648 -0.11941,0.0744 -0.27859,0.0812 -0.12824,0.005 -0.23494,-0.0388 -0.10677,-0.0457 -0.18452,-0.13838 -0.0778,-0.0927 -0.12359,-0.23399 -0.0458,-0.141287 -0.0537,-0.327005 -0.007,-0.165083 0.0313,-0.308452 0.0382,-0.144843 0.11629,-0.252984 0.0781,-0.108141 0.19501,-0.172147 0.11831,-0.06554 0.26866,-0.0719 0.13707,-0.0058 0.23635,0.03726 0.10069,0.04152 0.18088,0.122292 l -0.035,-0.828362 0.26236,-0.01109 0.0918,2.171132 z m -0.51809,-0.17005 q 0.12971,-0.005 0.22302,-0.0685 0.0948,-0.0631 0.17131,-0.174095 l -0.0305,-0.720763 q -0.0778,-0.09417 -0.16499,-0.130347 -0.0872,-0.03618 -0.19329,-0.03169 -0.20783,0.0088 -0.31356,0.162393 -0.10572,0.153605 -0.0941,0.429235 0.006,0.145921 0.0357,0.249512 0.0294,0.10212 0.0809,0.16786 0.0514,0.0643 0.1235,0.0922 0.0721,0.028 0.16197,0.0242 z" />
                    <path
                       id="path496"
                       style="font-style:normal;font-variant:normal;font-weight:normal;font-stretch:normal;font-family:Lato;-inkscape-font-specification:Lato;fill:#ffffff;fill-opacity:0.992157;stroke:#fefeff;stroke-width:0;stroke-miterlimit:4;stroke-dasharray:none;stroke-opacity:1"
                       d="m 145.08678,99.453213 q 0.0207,0.03375 0.0403,0.07203 0.0195,0.03681 0.039,0.07363 0.0112,-0.04096 0.0241,-0.08057 0.0127,-0.04108 0.0288,-0.07801 l 0.60208,-1.356765 q 0.0147,-0.03533 0.0346,-0.04447 0.0214,-0.0093 0.0596,-0.01257 l 0.21018,-0.01821 0.18253,2.106166 -0.24986,0.0217 -0.13413,-1.547663 q -0.003,-0.03086 -0.004,-0.06627 -0.002,-0.0354 -0.002,-0.0724 l -0.60752,1.379448 q -0.0281,0.06907 -0.0972,0.07506 l -0.0412,0.0036 q -0.0691,0.006 -0.10861,-0.05722 l -0.85234,-1.257372 q 0.008,0.03783 0.0124,0.07445 0.006,0.03649 0.009,0.06736 l 0.13413,1.547662 -0.24986,0.0216 -0.18253,-2.106168 0.21017,-0.01821 q 0.0382,-0.0033 0.0594,0.0023 0.0212,0.0056 0.0433,0.03772 l 0.83988,1.233277 z" />
                    <path
                       id="path498"
                       style="font-style:normal;font-variant:normal;font-weight:normal;font-stretch:normal;font-family:Lato;-inkscape-font-specification:Lato;fill:#ffffff;fill-opacity:0.992157;stroke:#fefeff;stroke-width:0;stroke-miterlimit:4;stroke-dasharray:none;stroke-opacity:1"
                       d="m 146.86507,98.540837 0.16782,1.484993 -0.26094,0.0295 -0.16782,-1.484994 z m 0.003,-0.472464 q 0.004,0.03812 -0.008,0.07365 -0.011,0.03391 -0.0344,0.06328 -0.0221,0.02774 -0.0556,0.04637 -0.0321,0.01847 -0.0702,0.02278 -0.0381,0.0043 -0.0735,-0.0065 -0.0339,-0.01102 -0.0616,-0.03312 -0.0279,-0.02357 -0.0462,-0.05416 -0.0185,-0.03206 -0.0228,-0.07017 -0.004,-0.03812 0.007,-0.07349 0.0107,-0.03684 0.0328,-0.06458 0.0219,-0.0292 0.0525,-0.04751 0.0321,-0.01847 0.0702,-0.02278 0.0381,-0.0043 0.0735,0.0065 0.0368,0.01068 0.0647,0.03425 0.0292,0.02194 0.0478,0.05547 0.0199,0.03189 0.0242,0.07001 z" />
                    <path
                       id="path500"
                       style="font-style:normal;font-variant:normal;font-weight:normal;font-stretch:normal;font-family:Lato;-inkscape-font-specification:Lato;fill:#ffffff;fill-opacity:0.992157;stroke:#fefeff;stroke-width:0;stroke-miterlimit:4;stroke-dasharray:none;stroke-opacity:1"
                       d="m 147.46344,97.785169 0.26731,2.156569 -0.2606,0.0323 -0.26732,-2.156569 z" />
                    <path
                       id="path502"
                       style="font-style:normal;font-variant:normal;font-weight:normal;font-stretch:normal;font-family:Lato;-inkscape-font-specification:Lato;fill:#ffffff;fill-opacity:0.992157;stroke:#fefeff;stroke-width:0;stroke-miterlimit:4;stroke-dasharray:none;stroke-opacity:1"
                       d="m 148.11104,97.700586 0.17878,1.266503 0.0672,-0.0095 q 0.0292,-0.0041 0.0472,-0.01411 0.0192,-0.01165 0.0376,-0.03958 l 0.39672,-0.567036 q 0.017,-0.02772 0.037,-0.04396 0.0213,-0.01791 0.0593,-0.02327 l 0.23518,-0.0332 -0.46301,0.656847 q -0.0324,0.05523 -0.0738,0.08938 0.0288,0.01382 0.0525,0.0343 0.025,0.01882 0.0481,0.04535 l 0.68158,0.648737 -0.23227,0.03279 q -0.0336,0.0047 -0.0599,-0.002 -0.025,-0.0084 -0.0467,-0.03513 l -0.57201,-0.537561 q -0.0263,-0.02758 -0.0494,-0.03326 -0.0219,-0.0073 -0.0657,-0.0012 l -0.0745,0.01052 0.0998,0.707022 -0.26148,0.03691 -0.30374,-2.15174 z" />
                  </g>
                  <path
                     id="path895-0-3-3-1"
                     style="opacity:1;fill:#fffee3;fill-opacity:0.992157;fill-rule:nonzero;stroke:#000000;stroke-width:0.151175;stroke-linecap:round;stroke-linejoin:round;stroke-miterlimit:4;stroke-dasharray:none;stroke-dashoffset:0;stroke-opacity:1;paint-order:fill markers stroke"
                     d="m 138.84294,80.280553 c -6.48295,-0.01112 -12.39716,-0.56178 -15.20696,-1.450597 3.29615,-0.852925 9.15262,-1.367769 15.49327,-1.36526 6.34065,0.0025 12.17922,0.521984 15.289,1.397879 -3.09704,0.898869 -9.09236,1.429099 -15.57531,1.417978 z"
                     inkscape:connector-curvature="0"
                     sodipodi:nodetypes="scscs" />
                  <g
                     id="g1794"
                     style="stroke-width:0.302351;stroke-miterlimit:4;stroke-dasharray:none">
                    <g
                       id="g1124"
                       transform="translate(44.090424,-20.937176)"
                       style="stroke-width:0.302351;stroke-miterlimit:4;stroke-dasharray:none">
                      <g
                         id="g1135"
                         style="stroke-width:0.302351;stroke-miterlimit:4;stroke-dasharray:none">
                        <path
                           style="opacity:1;fill:#c5c5c5;fill-opacity:1;fill-rule:nonzero;stroke:#000003;stroke-width:0.302912;stroke-linecap:round;stroke-linejoin:round;stroke-miterlimit:4;stroke-dasharray:none;stroke-dashoffset:0;stroke-opacity:1;paint-order:fill markers stroke"
                           id="path895-0-3-3-8-7"
                           transform="matrix(0.9773417,-0.21166768,0.29491413,0.95552376,0,0)"
                           sodipodi:type="arc"
                           sodipodi:cx="62.020657"
                           sodipodi:cy="113.43212"
                           sodipodi:rx="17.383791"
                           sodipodi:ry="2.6883857"
                           sodipodi:start="2.2619467"
                           sodipodi:end="5.4890605"
                           d="m 50.939811,115.50356 a 17.383791,2.6883857 0 0 1 -5.969907,-2.59515 17.383791,2.6883857 0 0 1 11.929551,-2.04537 17.383791,2.6883857 0 0 1 17.305662,0.65159 l -12.18446,1.91749 z"
                           sodipodi:arc-type="slice" />
                        <path
                           style="fill:#c5c5c5;fill-opacity:1;stroke:#000000;stroke-width:0.302351;stroke-linecap:round;stroke-linejoin:round;stroke-miterlimit:4;stroke-dasharray:none;stroke-opacity:1"
                           d="m 83.849233,99.584082 c 0,0 0.31373,0.126669 1.619156,-0.03316 1.305426,-0.159834 0.586462,-0.302194 1.558171,-0.359214 0.971709,-0.05702 0.964669,0.07118 1.671124,-0.142562 0.706455,-0.21374 1.028265,-0.35938 1.870502,-0.507712 0.842238,-0.148331 2.273979,-0.0895 2.934925,-0.270793 0.660946,-0.181292 0.729789,-0.386535 1.085981,-0.482022 0.356192,-0.09549 0.648754,0.12833 0.987144,-0.0072 0.33839,-0.135495 1.006026,-0.451776 1.56116,-0.670531 0.555134,-0.218756 1.121684,0.07833 1.829464,-0.128231 0.70778,-0.206564 1.50689,-0.650701 2.11209,-0.860273 0.6052,-0.209572 0.77756,0.04682 1.35904,-0.150954 0.58148,-0.197779 0.74773,-0.466897 1.37589,-0.675958 0.62816,-0.209061 2.00848,-0.318391 2.49755,-0.548743 0.48907,-0.230353 0.36818,-0.280397 0.70785,-0.480285 0.33967,-0.199888 0.83442,-0.144228 1.1709,-0.374053 0.33648,-0.229825 0.6934,-0.465004 0.97981,-0.713518 0.28641,-0.248514 0.46146,-0.405985 0.92875,-0.594188 0.46729,-0.188203 0.96441,-0.230051 1.06912,-0.558369 0.10471,-0.328318 0.0248,-0.339241 -0.11618,-0.482022 -0.14099,-0.142781 -0.0812,-0.240536 -0.37959,-0.391348 -0.29836,-0.150812 -0.97327,-0.158988 -1.45994,-0.244592 -0.48667,-0.0856 -0.92409,-0.254683 -1.42345,-0.250711 -0.49936,0.004 -1.07304,0.150551 -1.48915,0.171216 -0.41611,0.02067 -0.88856,0.0192 -0.88856,0.0192 -7.634349,2.863099 -14.88253,5.768442 -21.561757,8.736023 z"
                           id="path1117"
                           inkscape:connector-curvature="0"
                           sodipodi:nodetypes="czzzzzzzzzzzzzzzzzzzzzzzcc" />
                        <path
                           style="fill:none;stroke:#c5c5c5;stroke-width:0.483761;stroke-linecap:round;stroke-linejoin:miter;stroke-miterlimit:4;stroke-dasharray:none;stroke-opacity:1"
                           d="m 104.37006,91.322595 c -7.323525,2.810533 -12.898194,4.819342 -19.874793,7.888204"
                           id="path1119"
                           inkscape:connector-curvature="0"
                           sodipodi:nodetypes="cc" />
                        <path
                           sodipodi:nodetypes="cccc"
                           inkscape:connector-curvature="0"
                           id="path1126"
                           d="m 104.45782,91.065193 c 0.25144,-0.01606 0.74448,-0.0579 0.98331,-0.06593 l -0.782,0.350232 -0.31228,-0.270241"
                           style="fill:#c5c5c5;fill-opacity:1;stroke:none;stroke-width:0.302351;stroke-linecap:butt;stroke-linejoin:miter;stroke-miterlimit:4;stroke-dasharray:none;stroke-opacity:1" />
                        <path
                           sodipodi:nodetypes="cccc"
                           inkscape:connector-curvature="0"
                           id="path1128"
                           d="m 84.277965,99.190686 -0.490572,0.2463 c 0.186009,0.0247 0.678697,0.04964 0.802771,0.03827 z"
                           style="fill:#c5c5c5;fill-opacity:1;stroke:none;stroke-width:0.302351;stroke-linecap:butt;stroke-linejoin:miter;stroke-miterlimit:4;stroke-dasharray:none;stroke-opacity:1" />
                        <path
                           style="opacity:1;fill:none;fill-opacity:1;fill-rule:nonzero;stroke:#e5e5e5;stroke-width:0.302912;stroke-linecap:round;stroke-linejoin:round;stroke-miterlimit:4;stroke-dasharray:none;stroke-dashoffset:0;stroke-opacity:1;paint-order:fill markers stroke"
                           id="path895-0-3-3-8-7-7"
                           transform="matrix(0.9773417,-0.21166768,0.29491413,0.95552376,0,0)"
                           sodipodi:type="arc"
                           sodipodi:cx="62.072926"
                           sodipodi:cy="113.6014"
                           sodipodi:rx="16.187443"
                           sodipodi:ry="2.5033717"
                           sodipodi:start="3.7489672"
                           sodipodi:end="5.4192473"
                           d="m 48.780619,112.17269 a 16.187443,2.5033717 0 0 1 11.221444,-1.05409 16.187443,2.5033717 0 0 1 12.583765,0.57922"
                           sodipodi:open="true"
                           sodipodi:arc-type="arc" />
                      </g>
                    </g>
                    <ellipse
                       style="opacity:1;fill:#c5c5c5;fill-opacity:1;fill-rule:nonzero;stroke:#dcd9d9;stroke-width:0.304198;stroke-linecap:round;stroke-linejoin:round;stroke-miterlimit:4;stroke-dasharray:none;stroke-dashoffset:0;stroke-opacity:1;paint-order:fill markers stroke"
                       id="path895-0-3-3-8-4"
                       cx="103.23531"
                       cy="103.13084"
                       rx="10.503489"
                       ry="1.468285"
                       transform="matrix(0.97707698,-0.21288628,0.36189568,0.9322186,0,0)" />
                    <ellipse
                       style="opacity:1;fill:#c5c5c5;fill-opacity:1;fill-rule:nonzero;stroke:#dcd9d9;stroke-width:0.303516;stroke-linecap:round;stroke-linejoin:round;stroke-miterlimit:4;stroke-dasharray:none;stroke-dashoffset:0;stroke-opacity:1;paint-order:fill markers stroke"
                       id="path895-0-3-3-8-4-8"
                       cx="107.67113"
                       cy="101.43153"
                       rx="5.19243"
                       ry="0.75050801"
                       transform="matrix(0.97920806,-0.20285849,0.32232935,0.94662759,0,0)" />
                  </g>
                </g>
              </g>
            </g>
          </g>
        </g>
      </g>
      <path
         id="path2311-7"
         style="fill:#f0d070;fill-opacity:1;stroke:#000000;stroke-width:0.132292;stroke-linecap:butt;stroke-linejoin:miter;stroke-miterlimit:4;stroke-dasharray:none;stroke-opacity:1"
         d="m 82.845099,138.52491 v 0 l -8e-6,-3.93631 c -3.507382,0.89826 -7.171301,1.4506 -10.219505,1.54055 v 1e-5 3.93632 c 3.048212,-0.09 6.712131,-0.6423 10.219513,-1.54057 z"
         inkscape:connector-curvature="0"
         sodipodi:nodetypes="cccccccc" />
    </g>
  </g>
</svg>
