<?xml version="1.0" encoding="UTF-8" standalone="no"?>
<svg
   xmlns:dc="http://purl.org/dc/elements/1.1/"
   xmlns:cc="http://creativecommons.org/ns#"
   xmlns:rdf="http://www.w3.org/1999/02/22-rdf-syntax-ns#"
   xmlns:svg="http://www.w3.org/2000/svg"
   xmlns="http://www.w3.org/2000/svg"
   xmlns:sodipodi="http://sodipodi.sourceforge.net/DTD/sodipodi-0.dtd"
   xmlns:inkscape="http://www.inkscape.org/namespaces/inkscape"
   sodipodi:docname="nosugar.svg"
   inkscape:version="1.0 (6e3e5246a0, 2020-05-07)"
   id="svg3612"
   version="1.1"
   viewBox="0 0 42.787083 22.585138"
   height="22.585138mm"
   width="42.787083mm">
  <defs
     id="defs3606" />
  <sodipodi:namedview
     inkscape:window-maximized="0"
     inkscape:window-y="27"
     inkscape:window-x="117"
     inkscape:window-height="1023"
     inkscape:window-width="1439"
     showgrid="false"
     inkscape:document-rotation="0"
     inkscape:current-layer="layer1"
     inkscape:document-units="mm"
     inkscape:cy="-0.17656475"
     inkscape:cx="480.85748"
     inkscape:zoom="0.35"
     inkscape:pageshadow="2"
     inkscape:pageopacity="0.0"
     borderopacity="1.0"
     bordercolor="#666666"
     pagecolor="#ffffff"
     id="base" />
  <metadata
     id="metadata3609">
    <rdf:RDF>
      <cc:Work
         rdf:about="">
        <dc:format>image/svg+xml</dc:format>
        <dc:type
           rdf:resource="http://purl.org/dc/dcmitype/StillImage" />
        <dc:title></dc:title>
      </cc:Work>
    </rdf:RDF>
  </metadata>
  <g
     transform="translate(21.393541,-148.21338)"
     id="layer1"
     inkscape:groupmode="layer"
     inkscape:label="Layer 1">
    <path
       sodipodi:nodetypes="csccscsssscccc"
       d="m 6.9385742,162.53692 c -1.5456,2.33703 -5.599913,4.57852 -10.784079,5.96217 -5.184154,1.38364 -10.8002602,1.72315 -14.9382922,0.90308 M 21.320409,150.7888 c 0,0 -11.277532,6.61574 -12.4721808,7.76405 -1.194617,1.14828 -1.330457,1.69966 -1.330457,1.69966 -0.114496,0.25057 -0.253609,0.47409 -0.255622,0.76762 -0.02398,3.49171 -4.028857,7.03904 -11.257441,8.66815 -7.8366222,1.76615 -15.3862852,1.16561 -17.0422962,-2.26791 -1.310702,-2.71758 3.570636,-6.67135 10.867335,-9.92574 5.6287752,-2.5105 11.5889422,-1.96041 14.8628632,0.12062 h -1.1e-5 c 0,0 0.772577,0.61479 2.394962,-0.12493 1.622375,-0.73964 12.4000818,-9.16306 12.4000818,-9.16306"
       style="fill:#f7f7f7;fill-opacity:1;stroke:#000000;stroke-width:0.289063;stroke-linecap:butt;stroke-linejoin:miter;stroke-miterlimit:4;stroke-dasharray:none;stroke-opacity:1"
       id="path1206-3" />
    <path
       sodipodi:nodetypes="scscs"
       d="m -3.8455048,168.49909 c -5.184154,1.38364 -10.8002602,1.72315 -14.9042722,0.95263 3.235115,1.55455 8.9151332,1.55258 14.7544852,0.23656 6.131558,-1.38188 9.903388,-4.2138 10.933866,-7.15136 -1.5456,2.33703 -5.599913,4.57852 -10.784079,5.96217 z"
       style="fill:#cccccc;fill-opacity:1;stroke:#000000;stroke-width:0.289063;stroke-linecap:butt;stroke-linejoin:miter;stroke-miterlimit:4;stroke-dasharray:none;stroke-opacity:1"
       id="path1206-5-5" />
  </g>
</svg>
