<?xml version="1.0" encoding="UTF-8" standalone="no"?>
<svg
   xmlns:dc="http://purl.org/dc/elements/1.1/"
   xmlns:cc="http://creativecommons.org/ns#"
   xmlns:rdf="http://www.w3.org/1999/02/22-rdf-syntax-ns#"
   xmlns:svg="http://www.w3.org/2000/svg"
   xmlns="http://www.w3.org/2000/svg"
   xmlns:sodipodi="http://sodipodi.sourceforge.net/DTD/sodipodi-0.dtd"
   xmlns:inkscape="http://www.inkscape.org/namespaces/inkscape"
   sodipodi:docname="sugar.svg"
   inkscape:version="1.0 (6e3e5246a0, 2020-05-07)"
   id="svg3481"
   version="1.1"
   viewBox="0 0 42.787083 22.585142"
   height="22.585142mm"
   width="42.787083mm">
  <defs
     id="defs3475" />
  <sodipodi:namedview
     inkscape:window-maximized="0"
     inkscape:window-y="27"
     inkscape:window-x="117"
     inkscape:window-height="1023"
     inkscape:window-width="1439"
     showgrid="false"
     inkscape:document-rotation="0"
     inkscape:current-layer="layer1"
     inkscape:document-units="mm"
     inkscape:cy="-737.31941"
     inkscape:cx="-121.99965"
     inkscape:zoom="0.35"
     inkscape:pageshadow="2"
     inkscape:pageopacity="0.0"
     borderopacity="1.0"
     bordercolor="#666666"
     pagecolor="#ffffff"
     id="base" />
  <metadata
     id="metadata3478">
    <rdf:RDF>
      <cc:Work
         rdf:about="">
        <dc:format>image/svg+xml</dc:format>
        <dc:type
           rdf:resource="http://purl.org/dc/dcmitype/StillImage" />
        <dc:title></dc:title>
      </cc:Work>
    </rdf:RDF>
  </metadata>
  <g
     transform="translate(-138.11241,-343.24909)"
     id="layer1"
     inkscape:groupmode="layer"
     inkscape:label="Layer 1">
    <path
       sodipodi:nodetypes="csccscsssscccc"
       d="m 166.44452,357.57263 c -1.54559,2.33703 -5.59991,4.57852 -10.78407,5.96217 -5.18416,1.38364 -10.80026,1.72315 -14.9383,0.90308 m 40.10421,-18.61337 c 0,0 -11.27753,6.61575 -12.47218,7.76405 -1.19462,1.14828 -1.33046,1.69966 -1.33046,1.69966 -0.11449,0.25057 -0.25361,0.47409 -0.25562,0.76762 -0.024,3.49171 -4.02886,7.03905 -11.25744,8.66816 -7.83662,1.76614 -15.38628,1.1656 -17.0423,-2.26792 -1.3107,-2.71758 3.57064,-6.67135 10.86734,-9.92574 5.62877,-2.5105 11.58894,-1.96041 14.86286,0.12062 h -10e-6 c 0,0 0.77258,0.61479 2.39496,-0.12493 1.62238,-0.73964 12.40008,-9.16306 12.40008,-9.16306"
       style="fill:#f7f7f7;fill-opacity:1;stroke:#000000;stroke-width:0.289063;stroke-linecap:butt;stroke-linejoin:miter;stroke-miterlimit:4;stroke-dasharray:none;stroke-opacity:1"
       id="path1206-2" />
    <path
       sodipodi:nodetypes="scscs"
       d="m 155.66045,363.5348 c -5.18416,1.38364 -10.80026,1.72315 -14.90428,0.95264 3.23512,1.55454 8.91514,1.55258 14.75449,0.23656 6.13156,-1.38189 9.90339,-4.21381 10.93386,-7.15137 -1.54559,2.33703 -5.59991,4.57852 -10.78407,5.96217 z"
       style="fill:#cccccc;fill-opacity:1;stroke:#000000;stroke-width:0.289063;stroke-linecap:butt;stroke-linejoin:miter;stroke-miterlimit:4;stroke-dasharray:none;stroke-opacity:1"
       id="path1206-5-9" />
    <path
       sodipodi:nodetypes="ssssssss"
       d="m 163.1647,360.23469 c -0.39858,0.4203 -1.0913,0.87191 -2.35666,1.40595 -2.50017,1.0552 -6.5101,2.23049 -9.91168,2.68078 -5.38453,0.71277 -12.06265,0.98752 -11.96731,-2.28609 0.0922,-3.1655 7.43617,-10.14905 12.02054,-10.93998 1.34185,-0.23152 2.60834,-0.66271 3.82754,-0.72491 1.72423,-0.0879 4.73886,2.64993 6.06913,3.46786 1.14124,0.70169 3.39772,5.25828 2.31844,6.39639 z"
       style="fill:#ffffff;fill-opacity:1;stroke:#000000;stroke-width:0.109493;stroke-linecap:butt;stroke-miterlimit:4;stroke-dasharray:none;stroke-opacity:1"
       id="path1243-1" />
  </g>
</svg>
