<?xml version="1.0" encoding="UTF-8" standalone="no"?>
<!-- Created with Inkscape (http://www.inkscape.org/) -->

<svg
   xmlns:dc="http://purl.org/dc/elements/1.1/"
   xmlns:cc="http://creativecommons.org/ns#"
   xmlns:rdf="http://www.w3.org/1999/02/22-rdf-syntax-ns#"
   xmlns:svg="http://www.w3.org/2000/svg"
   xmlns="http://www.w3.org/2000/svg"
   xmlns:xlink="http://www.w3.org/1999/xlink"
   xmlns:sodipodi="http://sodipodi.sourceforge.net/DTD/sodipodi-0.dtd"
   xmlns:inkscape="http://www.inkscape.org/namespaces/inkscape"
   width="37.910915mm"
   height="42.893444mm"
   viewBox="0 0 37.910915 42.893444"
   version="1.1"
   id="svg2408"
   inkscape:version="0.92.3 (2405546, 2018-03-11)"
   sodipodi:docname="tehpeng.svg">
  <defs
     id="defs2402">
    <linearGradient
       inkscape:collect="always"
       xlink:href="#linearGradient1267"
       id="linearGradient1678"
       gradientUnits="userSpaceOnUse"
       x1="145.90367"
       y1="85.106766"
       x2="145.92416"
       y2="69.16642" />
    <linearGradient
       inkscape:collect="always"
       id="linearGradient1267">
      <stop
         style="stop-color:#ba7727;stop-opacity:0.72549021"
         offset="0"
         id="stop1263" />
      <stop
         style="stop-color:#e4b57d;stop-opacity:0.76078433"
         offset="1"
         id="stop1265" />
    </linearGradient>
  </defs>
  <sodipodi:namedview
     id="base"
     pagecolor="#ffffff"
     bordercolor="#666666"
     borderopacity="1.0"
     inkscape:pageopacity="0.0"
     inkscape:pageshadow="2"
     inkscape:zoom="0.35"
     inkscape:cx="-953.85751"
     inkscape:cy="270.92498"
     inkscape:document-units="mm"
     inkscape:current-layer="layer1"
     showgrid="false"
     inkscape:window-width="1920"
     inkscape:window-height="1017"
     inkscape:window-x="-8"
     inkscape:window-y="-8"
     inkscape:window-maximized="1" />
  <metadata
     id="metadata2405">
    <rdf:RDF>
      <cc:Work
         rdf:about="">
        <dc:format>image/svg+xml</dc:format>
        <dc:type
           rdf:resource="http://purl.org/dc/dcmitype/StillImage" />
        <dc:title />
      </cc:Work>
    </rdf:RDF>
  </metadata>
  <g
     inkscape:label="Layer 1"
     inkscape:groupmode="layer"
     id="layer1"
     transform="translate(-112.52361,-177.62212)">
    <g
       id="g1544"
       transform="translate(-18.942183,122.89559)">
      <path
         sodipodi:nodetypes="csccscccsscc"
         inkscape:connector-curvature="0"
         d="m 132.98719,65.49565 c 0,0 0.22351,0.651978 0.71322,6.382201 0.23454,2.744384 0.71509,8.831663 0.81425,11.005875 0.26703,5.854583 0.45493,9.738351 0.45493,9.738351 0.38626,1.68717 4.9044,3.008869 10.43973,3.053949 5.53533,0.04508 10.27765,-1.201202 10.95774,-2.879687 0,0 0.18792,-3.883766 0.45495,-9.738348 0.0992,-2.174212 1.07024,-14.817004 1.37649,-17.554313 -1.47626,1.147318 -3.9134,1.416117 -6.54263,1.842006 -3.84439,0.622722 -8.80047,0.309033 -12.45208,-0.06379 -2.16023,-0.220559 -4.88217,-0.620137 -6.2166,-1.786212 z"
         style="fill:url(#linearGradient1678);fill-opacity:1;stroke:#e3b57c;stroke-width:0.15099999;stroke-linecap:butt;stroke-linejoin:miter;stroke-miterlimit:4;stroke-dasharray:none;stroke-opacity:0.94117647"
         id="path1009-0-11-7-6" />
      <path
         sodipodi:nodetypes="czscccc"
         inkscape:connector-curvature="0"
         id="path1036-6-8-1"
         d="m 158.79915,66.673395 c -0.25773,-0.32217 5.1507,-1.265466 7.89584,-1.050843 2.74515,0.214622 2.56531,2.967922 2.57677,6.103791 0.007,1.944743 -0.43467,4.98288 -0.92098,8.13432 -0.84702,3.450207 -0.84009,6.408182 -3.27738,6.654814 -1.00488,0.476938 -7.61653,0.712217 -7.62853,0.702216 0.0908,-6.527345 0.69546,-13.613548 1.35428,-20.544298 z"
         style="fill:none;stroke:#000000;stroke-width:0.20972867;stroke-linecap:butt;stroke-linejoin:miter;stroke-miterlimit:4;stroke-dasharray:none;stroke-opacity:1" />
      <path
         sodipodi:nodetypes="czscccc"
         inkscape:connector-curvature="0"
         id="path1036-6-8-1-7"
         d="m 158.61835,68.620604 c -0.21044,-0.263059 4.20568,-1.297867 6.44716,-1.122622 2.24148,0.175244 2.09464,2.423383 2.10399,4.983899 0.006,1.587931 -0.35492,4.068647 -0.752,6.641877 -0.69161,2.81718 -0.68596,5.232441 -2.67606,5.433823 -0.82051,0.389431 -6.21956,0.604165 -6.21956,0.604165 0.0741,-5.329742 0.55853,-10.88201 1.09647,-16.541142 z"
         style="fill:none;stroke:#000000;stroke-width:0.17124873;stroke-linecap:butt;stroke-linejoin:miter;stroke-miterlimit:4;stroke-dasharray:none;stroke-opacity:1" />
      <ellipse
         cx="145.6684"
         cy="57.690041"
         rx="14.102593"
         ry="2.8635118"
         id="path895-7-6"
         style="opacity:1;fill:none;fill-opacity:1;fill-rule:nonzero;stroke:#000003;stroke-width:0.2;stroke-linecap:round;stroke-linejoin:round;stroke-miterlimit:4;stroke-dasharray:none;stroke-dashoffset:0;stroke-opacity:1;paint-order:fill markers stroke" />
      <path
         style="fill:none;stroke:#000000;stroke-width:0.2;stroke-linecap:butt;stroke-linejoin:miter;stroke-miterlimit:4;stroke-dasharray:none;stroke-opacity:1"
         d="m 131.60855,57.615688 c 0,0 0.26647,1.629492 1.36803,13.276777 0.29828,3.153803 0.71509,10.17217 0.81425,12.676393 0.26703,6.743217 0.45493,11.216484 0.45493,11.216484"
         id="path1009-0"
         inkscape:connector-curvature="0"
         sodipodi:nodetypes="cssc" />
      <path
         sodipodi:open="true"
         d="m 157.09068,94.98815 a 11.492381,2.9216461 0 0 1 -11.78161,2.513252 11.492381,2.9216461 0 0 1 -11.06331,-2.716063"
         sodipodi:end="3.0717795"
         sodipodi:start="0.13962634"
         sodipodi:ry="2.9216461"
         sodipodi:rx="11.492381"
         sodipodi:cy="94.581535"
         sodipodi:cx="145.71014"
         sodipodi:type="arc"
         id="path1403-2-2-3"
         style="opacity:1;fill:none;fill-opacity:0.6627451;fill-rule:nonzero;stroke:#000000;stroke-width:0.23352839;stroke-linecap:round;stroke-linejoin:round;stroke-miterlimit:4;stroke-dasharray:none;stroke-dashoffset:0;stroke-opacity:1;paint-order:fill markers stroke" />
      <path
         style="fill:none;stroke:#000000;stroke-width:0.2;stroke-linecap:butt;stroke-linejoin:miter;stroke-miterlimit:4;stroke-dasharray:none;stroke-opacity:1"
         d="m 159.7279,57.818497 c 0,0 -0.26647,1.629492 -1.36803,13.276778 -0.29828,3.153803 -0.71509,10.17217 -0.81425,12.676393 -0.26703,6.743216 -0.45493,11.216484 -0.45493,11.216484"
         id="path1009-0-1"
         inkscape:connector-curvature="0"
         sodipodi:nodetypes="cssc" />
      <path
         sodipodi:open="true"
         d="m 156.36704,92.796339 a 10.752525,3.2842102 0 0 1 -10.95772,2.879687 10.752525,3.2842102 0 0 1 -10.43973,-3.053949"
         sodipodi:end="3.0717795"
         sodipodi:start="0.12312768"
         sodipodi:ry="3.2842102"
         sodipodi:rx="10.752525"
         sodipodi:cy="92.392982"
         sodipodi:cx="145.69592"
         sodipodi:type="arc"
         id="path1403-2-0"
         style="opacity:1;fill:none;fill-opacity:0.6627451;fill-rule:nonzero;stroke:#000000;stroke-width:0.15099999;stroke-linecap:round;stroke-linejoin:round;stroke-miterlimit:4;stroke-dasharray:none;stroke-dashoffset:0;stroke-opacity:1;paint-order:fill markers stroke" />
      <path
         style="fill:none;stroke:#000000;stroke-width:0.15099999;stroke-linecap:butt;stroke-linejoin:miter;stroke-miterlimit:4;stroke-dasharray:none;stroke-opacity:1"
         d="m 132.98719,65.495649 c 0,0 0.22351,0.651978 0.71322,6.382201 0.23454,2.744384 0.71509,8.831663 0.81425,11.005875 0.26703,5.854583 0.45493,9.738352 0.45493,9.738352"
         id="path1009-0-11"
         inkscape:connector-curvature="0"
         sodipodi:nodetypes="cssc" />
      <path
         style="fill:none;stroke:#000000;stroke-width:0.15099999;stroke-linecap:butt;stroke-linejoin:miter;stroke-miterlimit:4;stroke-dasharray:none;stroke-opacity:1"
         d="m 157.63626,72.052115 c -0.30625,2.737309 -0.71509,8.831663 -0.81425,11.005875 -0.26703,5.854582 -0.45493,9.738349 -0.45493,9.738349"
         id="path1009-0-11-7"
         inkscape:connector-curvature="0"
         sodipodi:nodetypes="csc" />
      <ellipse
         ry="2.3334413"
         rx="12.580547"
         cy="65.34079"
         cx="145.63579"
         id="path1403-7"
         style="opacity:1;fill:#e3b47c;fill-opacity:0.76078431;fill-rule:nonzero;stroke:#e3b57c;stroke-width:0.1;stroke-linecap:round;stroke-linejoin:round;stroke-miterlimit:4;stroke-dasharray:none;stroke-dashoffset:0;stroke-opacity:0.94117647;paint-order:fill markers stroke" />
      <path
         sodipodi:open="true"
         d="m 147.56581,60.091123 a 13.570623,2.4253838 0 0 1 -14.25164,-1.368854 13.570623,2.4253838 0 0 1 3.20871,-2.834184 13.570623,2.4253838 0 0 1 16.10815,-0.270955 13.570623,2.4253838 0 0 1 6.11118,2.677414"
         sodipodi:end="0.25132741"
         sodipodi:start="1.4252727"
         sodipodi:ry="2.4253838"
         sodipodi:rx="13.570623"
         sodipodi:cy="57.691376"
         sodipodi:cx="145.59793"
         sodipodi:type="arc"
         id="path895-7-6-6"
         style="opacity:1;fill:none;fill-opacity:1;fill-rule:nonzero;stroke:#000003;stroke-width:0.18055986;stroke-linecap:round;stroke-linejoin:round;stroke-miterlimit:4;stroke-dasharray:none;stroke-dashoffset:0;stroke-opacity:1;paint-order:fill markers stroke" />
      <rect
         transform="rotate(25.524828)"
         ry="0.8842448"
         rx="0.8842448"
         y="-1.5403664"
         x="151.27556"
         height="7.0114584"
         width="7.6729164"
         id="rect1296"
         style="opacity:1;fill:#f4e1ca;fill-opacity:0.45959598;fill-rule:nonzero;stroke:#e3b57c;stroke-width:0.1;stroke-linecap:round;stroke-linejoin:round;stroke-miterlimit:4;stroke-dasharray:none;stroke-dashoffset:0;stroke-opacity:0.94117647;paint-order:fill markers stroke" />
      <rect
         transform="rotate(-5.6445626)"
         ry="0.8842448"
         rx="0.8842448"
         y="81.239723"
         x="134.14581"
         height="7.0114584"
         width="7.6729169"
         id="rect1296-0"
         style="opacity:1;fill:#f4e1ca;fill-opacity:0.45959598;fill-rule:nonzero;stroke:#e3b57c;stroke-width:0.1;stroke-linecap:round;stroke-linejoin:round;stroke-miterlimit:4;stroke-dasharray:none;stroke-dashoffset:0;stroke-opacity:0.94117647;paint-order:fill markers stroke" />
      <rect
         transform="rotate(15.032476)"
         ry="0.8842448"
         rx="0.8842448"
         y="24.177574"
         x="161.08551"
         height="7.0114584"
         width="7.6729169"
         id="rect1296-0-7"
         style="opacity:1;fill:#f4e1ca;fill-opacity:0.45959598;fill-rule:nonzero;stroke:#e3b57c;stroke-width:0.1;stroke-linecap:round;stroke-linejoin:round;stroke-miterlimit:4;stroke-dasharray:none;stroke-dashoffset:0;stroke-opacity:0.94117647;paint-order:fill markers stroke" />
      <rect
         transform="rotate(-20.080352)"
         ry="0.8842448"
         rx="0.8842448"
         y="120.20482"
         x="111.99117"
         height="7.0114584"
         width="7.6729169"
         id="rect1296-0-6"
         style="opacity:1;fill:#f4e1ca;fill-opacity:0.45959598;fill-rule:nonzero;stroke:#e3b57c;stroke-width:0.1;stroke-linecap:round;stroke-linejoin:round;stroke-miterlimit:4;stroke-dasharray:none;stroke-dashoffset:0;stroke-opacity:0.94117647;paint-order:fill markers stroke" />
      <rect
         transform="rotate(-14.832679)"
         ry="0.8842448"
         rx="0.8842448"
         y="104.84911"
         x="111.3642"
         height="7.0114584"
         width="7.6729169"
         id="rect1296-0-6-0"
         style="opacity:1;fill:#f4e1ca;fill-opacity:0.45959598;fill-rule:nonzero;stroke:#e3b57c;stroke-width:0.1;stroke-linecap:round;stroke-linejoin:round;stroke-miterlimit:4;stroke-dasharray:none;stroke-dashoffset:0;stroke-opacity:0.94117647;paint-order:fill markers stroke" />
      <rect
         transform="rotate(18.417006)"
         ry="0.8842448"
         rx="0.8842448"
         y="24.934538"
         x="158.24327"
         height="7.0114584"
         width="7.6729169"
         id="rect1296-0-6-2"
         style="opacity:1;fill:#f4e1ca;fill-opacity:0.45959598;fill-rule:nonzero;stroke:#e3b57c;stroke-width:0.1;stroke-linecap:round;stroke-linejoin:round;stroke-miterlimit:4;stroke-dasharray:none;stroke-dashoffset:0;stroke-opacity:0.94117647;paint-order:fill markers stroke" />
      <path
         sodipodi:open="true"
         d="m 159.77099,57.689892 a 14.102593,2.8635116 0 0 1 -7.0513,2.479874 14.102593,2.8635116 0 0 1 -14.10259,0 14.102593,2.8635116 0 0 1 -7.0513,-2.479874"
         sodipodi:end="3.1415927"
         sodipodi:start="0"
         sodipodi:ry="2.8635116"
         sodipodi:rx="14.102593"
         sodipodi:cy="57.689892"
         sodipodi:cx="145.6684"
         sodipodi:type="arc"
         id="path895-7-6-2"
         style="opacity:1;fill:none;fill-opacity:1;fill-rule:nonzero;stroke:#000003;stroke-width:0.2;stroke-linecap:round;stroke-linejoin:round;stroke-miterlimit:4;stroke-dasharray:none;stroke-dashoffset:0;stroke-opacity:1;paint-order:fill markers stroke" />
    </g>
  </g>
</svg>
